<svg width="30" height="30" viewBox="0 0 30 30" fill="none" xmlns="http://www.w3.org/2000/svg">
<rect width="30" height="30" rx="15" fill="#3CDFFF"/>
<path d="M18.6791 13.9331L20.4274 12.288L20.4376 12.2778C20.7977 11.9177 21 11.4293 21 10.9201C21 10.4108 20.7977 9.92247 20.4376 9.56238C20.0775 9.20229 19.5892 9 19.0799 9C18.5707 9 18.0823 9.20229 17.7222 9.56238C17.7222 9.56598 17.7156 9.56898 17.712 9.57258L16.0669 11.3209L11.0873 9.50898C11.0014 9.47777 10.9085 9.47169 10.8193 9.49145C10.7302 9.51122 10.6485 9.55601 10.5839 9.62058L9.14399 11.0605C9.09382 11.1107 9.05541 11.1714 9.03153 11.2383C9.00765 11.3051 8.99889 11.3764 9.00589 11.4471C9.01289 11.5177 9.03547 11.5859 9.07201 11.6468C9.10855 11.7076 9.15813 11.7596 9.21719 11.799L13.0503 14.3543L12.1612 15.2404H10.9199C10.7927 15.2404 10.6708 15.2909 10.5809 15.3808L9.14099 16.8207C9.08484 16.8767 9.04344 16.9458 9.02051 17.0217C8.99757 17.0976 8.99381 17.1781 9.00956 17.2558C9.02531 17.3335 9.06008 17.4062 9.11076 17.4672C9.16144 17.5282 9.22645 17.5757 9.29998 17.6054L11.509 18.4892L12.391 20.694L12.3946 20.7036C12.4251 20.7775 12.4735 20.8425 12.5356 20.8929C12.5976 20.9433 12.6712 20.9774 12.7498 20.9921C12.8283 21.0068 12.9093 21.0017 12.9853 20.9772C13.0614 20.9527 13.1301 20.9096 13.1853 20.8518L14.6174 19.4191C14.6622 19.3747 14.6979 19.3219 14.7223 19.2638C14.7466 19.2056 14.7593 19.1432 14.7596 19.0801V17.8388L15.6451 16.9533L18.2004 20.7864C18.2398 20.8455 18.2918 20.895 18.3526 20.9316C18.4135 20.9681 18.4817 20.9907 18.5523 20.9977C18.623 21.0047 18.6943 20.996 18.7611 20.9721C18.828 20.9482 18.8887 20.9098 18.9389 20.8596L20.3788 19.4197C20.4434 19.3551 20.4882 19.2734 20.5079 19.1843C20.5277 19.0951 20.5216 19.0022 20.4904 18.9163L18.6791 13.9331ZM18.6749 19.7665L16.1197 15.9339C16.0805 15.8744 16.0286 15.8244 15.9677 15.7875C15.9068 15.7505 15.8384 15.7276 15.7675 15.7204C15.7513 15.7204 15.7357 15.7204 15.7201 15.7204C15.6571 15.7204 15.5946 15.7329 15.5363 15.757C15.4781 15.7812 15.4251 15.8167 15.3806 15.8613L13.9407 17.3012C13.8506 17.3911 13.7999 17.513 13.7997 17.6402V18.8815L13.0155 19.6657L12.3256 17.9402C12.3014 17.8803 12.2655 17.8259 12.2198 17.7802C12.1741 17.7345 12.1197 17.6986 12.0598 17.6744L10.3355 16.9845L11.1191 16.2003H12.3598C12.4228 16.2004 12.4853 16.188 12.5435 16.1639C12.6018 16.1398 12.6547 16.1045 12.6994 16.0599L14.1393 14.62C14.1895 14.5698 14.228 14.5091 14.252 14.4421C14.2759 14.3752 14.2847 14.3038 14.2777 14.2331C14.2707 14.1624 14.2481 14.0941 14.2115 14.0332C14.1749 13.9723 14.1252 13.9203 14.0661 13.8809L10.2335 11.3251L11.0435 10.5157L16.0363 12.3312C16.1243 12.3635 16.2198 12.3694 16.3111 12.3481C16.4023 12.3267 16.4853 12.2792 16.5499 12.2112L18.4062 10.2367C18.5871 10.0611 18.8299 9.9637 19.082 9.9656C19.3342 9.9675 19.5755 10.0685 19.7537 10.2469C19.932 10.4252 20.0329 10.6665 20.0347 10.9187C20.0365 11.1709 19.939 11.4136 19.7633 11.5944L17.7912 13.4501C17.7232 13.5147 17.6757 13.5977 17.6543 13.6889C17.633 13.7802 17.6389 13.8757 17.6712 13.9637L19.4867 18.9565L18.6749 19.7665Z" fill="white"/>
</svg>
