<svg width="30" height="30" viewBox="0 0 30 30" fill="none" xmlns="http://www.w3.org/2000/svg">
<rect width="30" height="30" rx="15" fill="#A566FF"/>
<path d="M21.3025 14.7053C21.2813 14.6156 21.2383 14.5325 21.1773 14.4634C21.1162 14.3943 21.0391 14.3414 20.9527 14.3093L16.922 12.7973L17.9477 7.66676C17.9709 7.54756 17.9547 7.42403 17.9016 7.31483C17.8484 7.20562 17.7612 7.11666 17.6531 7.06137C17.545 7.00608 17.4218 6.98746 17.3021 7.00832C17.1825 7.02918 17.0729 7.08839 16.9898 7.17701L9.15373 15.5728C9.09008 15.6399 9.04404 15.7217 9.01972 15.8109C8.99539 15.9001 8.99354 15.9939 9.01433 16.084C9.03512 16.1741 9.0779 16.2576 9.13886 16.3272C9.19981 16.3967 9.27703 16.45 9.36362 16.4824L13.3957 17.9943L12.3728 23.1193C12.3496 23.2385 12.3658 23.362 12.4189 23.4713C12.4721 23.5805 12.5593 23.6694 12.6674 23.7247C12.7755 23.78 12.8987 23.7986 13.0184 23.7778C13.138 23.7569 13.2476 23.6977 13.3307 23.6091L21.1668 15.2132C21.2293 15.1462 21.2743 15.0648 21.298 14.9762C21.3217 14.8876 21.3232 14.7946 21.3025 14.7053ZM13.8568 21.4101L14.5893 17.7453C14.6156 17.6153 14.5948 17.4802 14.5307 17.3642C14.4666 17.2481 14.3635 17.1585 14.2395 17.1114L10.5425 15.7226L16.463 9.37952L15.7312 13.0443C15.705 13.1743 15.7257 13.3093 15.7898 13.4254C15.8539 13.5415 15.9571 13.6311 16.081 13.6782L19.7752 15.0635L13.8568 21.4101Z" fill="white"/>
</svg>
