<svg width="31" height="30" viewBox="0 0 31 30" fill="none" xmlns="http://www.w3.org/2000/svg">
<rect x="0.5" width="30" height="30" rx="15" fill="#1F9F70"/>
<path d="M22.9964 14.5072C23.1228 18.0074 20.2851 21.9781 15.5206 21.9999C11.2562 22.019 7.97289 18.6877 8.00017 14.4455C8.02654 10.2723 11.2871 7.00546 15.4969 7.00001C20.1041 6.99456 23.1174 10.8018 22.9955 14.5072H22.9964ZM22.1163 13.372C22.1127 13.3384 22.1127 13.293 22.1036 13.2485C21.8553 12.0741 21.3443 11.0288 20.5669 10.1124C20.4051 9.92079 20.2351 9.90989 20.0041 9.97438C18.5375 10.3813 17.4118 11.235 16.6208 12.5273C16.5153 12.6999 16.2834 12.8643 16.488 13.1258C16.6835 13.3747 16.9017 13.3384 17.1709 13.2584C18.0292 13.0032 18.8985 12.8725 19.805 13.0051C20.4842 13.1041 21.1316 13.2766 21.758 13.5482C21.9263 13.6208 22.1245 13.7189 22.1154 13.3738L22.1163 13.372ZM8.86668 15.2874C9.03671 16.7105 9.59318 17.8839 10.4861 18.9093C10.6206 19.0637 10.7634 19.0918 10.968 19.0355C12.4673 18.6187 13.6057 17.735 14.4077 16.4126C14.5086 16.2464 14.6895 16.0693 14.4922 15.8432C14.3104 15.6352 14.1094 15.6779 13.8757 15.746C13.001 16.0003 12.1191 16.1275 11.1962 15.9976C10.397 15.885 9.64864 15.6379 8.86578 15.2865L8.86668 15.2874ZM16.2871 21.1426C17.721 20.9564 18.8921 20.4196 19.9195 19.5478C20.1132 19.3834 20.0659 19.1945 20.0123 19.011C19.5786 17.527 18.7084 16.3745 17.3682 15.588C17.2045 15.4917 17.0445 15.3582 16.8372 15.5371C16.6353 15.7106 16.6762 15.8941 16.7417 16.1075C16.979 16.8776 17.0536 17.6632 17.0163 18.4715C16.9736 19.3925 16.7008 20.2425 16.2862 21.1435L16.2871 21.1426ZM14.725 11.1759C14.7114 11.4566 14.8077 11.9452 14.9323 12.4274C14.975 12.5927 14.9923 12.798 15.2296 12.8343C15.4669 12.8697 15.587 12.7353 15.687 12.5473C16.4871 11.0442 17.6919 9.9989 19.2822 9.39585C19.5386 9.29867 19.6122 9.20694 19.3422 9.01985C18.3647 8.34324 17.2827 7.95998 16.1052 7.82375C15.7906 7.78742 15.6006 7.90367 15.4542 8.18158C14.9959 9.05164 14.7377 9.96893 14.7232 11.1759H14.725ZM11.9718 15.2156C12.5091 15.2292 13.0329 15.1775 13.5421 15.014C13.7057 14.9613 13.8548 14.9068 13.8567 14.6889C13.8585 14.4972 13.7766 14.3828 13.6084 14.3002C12.06 13.5354 10.9898 12.3393 10.3933 10.7209C10.2815 10.4176 10.1624 10.4648 10.0069 10.6873C9.33495 11.6491 8.96125 12.7181 8.83304 13.8797C8.79849 14.1939 8.92124 14.3873 9.19674 14.5308C10.0687 14.9868 10.9834 15.2601 11.9709 15.2156H11.9718ZM20.7633 18.645C21.6435 17.5098 22.079 16.3109 22.2063 14.9895C22.2318 14.7279 22.0672 14.6153 21.8744 14.5063C20.5333 13.7434 19.1103 13.6045 17.6246 13.9514C17.4427 13.9941 17.2227 14.0023 17.1882 14.2693C17.1527 14.5417 17.3373 14.6389 17.53 14.7379C18.2238 15.0939 18.8203 15.5707 19.3467 16.1456C19.9896 16.8486 20.3996 17.6814 20.7633 18.645ZM14.6068 8.04626C14.565 7.82738 14.3804 7.90549 14.2595 7.92819C13.0783 8.15161 12.0318 8.65748 11.1244 9.44943C10.9571 9.59475 10.917 9.74551 10.9816 9.96802C11.4071 11.4175 12.2364 12.5609 13.5339 13.3474C13.7103 13.4546 13.8985 13.6726 14.1422 13.4819C14.3767 13.2975 14.3022 13.0623 14.2304 12.8207C13.7794 11.3058 13.8612 9.81817 14.4813 8.36231C14.5222 8.26514 14.5586 8.16614 14.6059 8.04626H14.6068ZM16.2307 18.0256C16.2516 17.5306 16.1998 17.0375 16.0507 16.557C15.9979 16.3881 15.9852 16.1929 15.7424 16.1656C15.4915 16.1384 15.4024 16.3055 15.3096 16.4871C14.5486 17.9829 13.3611 19.0019 11.8045 19.6068C11.6981 19.6477 11.5372 19.6495 11.529 19.7975C11.5226 19.9092 11.6499 19.9619 11.7363 20.02C12.6937 20.6676 13.7494 21.0445 14.8959 21.1771C15.1851 21.2107 15.3724 21.1162 15.5169 20.8483C15.9943 19.9664 16.2725 19.041 16.2307 18.0247V18.0256ZM14.6459 14.4682C14.6241 14.9186 15.0205 15.3555 15.4678 15.3746C15.937 15.3945 16.3753 14.9849 16.3926 14.5118C16.408 14.074 15.9979 13.6508 15.537 13.6299C15.0896 13.609 14.6686 14.0059 14.6468 14.4682H14.6459Z" fill="white"/>
</svg>
