<svg width="30" height="30" viewBox="0 0 30 30" fill="none" xmlns="http://www.w3.org/2000/svg">
<rect width="30" height="30" rx="15" fill="#2E258B"/>
<mask id="path-2-inside-1_2283_4768" fill="white">
<path d="M20.3728 14.4571L19.6193 14.2056V11.3077C19.6193 11.0629 19.522 10.8281 19.3489 10.655C19.1758 10.4819 18.941 10.3846 18.6962 10.3846H15.4654V9.46154C15.4654 9.33913 15.4168 9.22174 15.3303 9.13518C15.2437 9.04863 15.1263 9 15.0039 9C14.8815 9 14.7641 9.04863 14.6775 9.13518C14.591 9.22174 14.5424 9.33913 14.5424 9.46154V10.3846H11.3116C11.0668 10.3846 10.832 10.4819 10.6589 10.655C10.4858 10.8281 10.3885 11.0629 10.3885 11.3077V14.2056L9.63506 14.4571C9.45126 14.5184 9.2914 14.6359 9.17812 14.7931C9.06484 14.9503 9.00389 15.1391 9.00391 15.3329V16.8462C9.00391 20.3965 14.6514 21.8492 14.892 21.9092C14.9655 21.9276 15.0423 21.9276 15.1158 21.9092C15.3564 21.8492 21.0039 20.3965 21.0039 16.8462V15.3329C21.0039 15.1391 20.943 14.9503 20.8297 14.7931C20.7164 14.6359 20.5566 14.5184 20.3728 14.4571ZM11.3116 11.3077H18.6962V13.8981L15.1499 12.716C15.0551 12.6844 14.9527 12.6844 14.8579 12.716L11.3116 13.8981V11.3077ZM20.0808 16.8462C20.0808 18.2833 18.7147 19.3269 17.5683 19.9517C16.7521 20.3848 15.8926 20.7308 15.0039 20.9838C14.1206 20.7334 13.2661 20.3908 12.4545 19.9615C10.3654 18.8279 9.92698 17.6417 9.92698 16.8462V15.3329L14.5424 13.7942V17.7692C14.5424 17.8916 14.591 18.009 14.6775 18.0956C14.7641 18.1821 14.8815 18.2308 15.0039 18.2308C15.1263 18.2308 15.2437 18.1821 15.3303 18.0956C15.4168 18.009 15.4654 17.8916 15.4654 17.7692V13.7942L20.0808 15.3329V16.8462Z"/>
</mask>
<path d="M20.3728 14.4571L20.0421 15.4477L20.0425 15.4478L20.3728 14.4571ZM19.6193 14.2056H18.575V14.9579L19.2886 15.1961L19.6193 14.2056ZM18.6962 10.3846V9.34033V10.3846ZM15.4654 10.3846H14.4212V11.4289H15.4654V10.3846ZM15.0039 9L15.0039 7.95571L15.0039 9ZM14.5424 10.3846V11.4289H15.5867V10.3846H14.5424ZM11.3116 10.3846L11.3116 9.34033L11.3116 10.3846ZM10.3885 11.3077H9.34423H10.3885ZM10.3885 14.2056L10.7192 15.1961L11.4328 14.9579V14.2056H10.3885ZM9.63506 14.4571L9.96532 15.4478L9.96575 15.4477L9.63506 14.4571ZM9.00391 15.3329L10.0482 15.3329L10.0482 15.3328L9.00391 15.3329ZM14.892 21.9092L15.1452 20.8961L15.1447 20.896L14.892 21.9092ZM15.1158 21.9092L14.8631 20.896L14.8626 20.8961L15.1158 21.9092ZM21.0039 15.3329L19.9596 15.3328V15.3329H21.0039ZM11.3116 11.3077V10.2634H10.2673V11.3077H11.3116ZM18.6962 11.3077H19.7405V10.2634H18.6962V11.3077ZM18.6962 13.8981L18.366 14.8888L19.7405 15.3469V13.8981H18.6962ZM15.1499 12.716L14.8196 13.7067L14.8196 13.7067L15.1499 12.716ZM14.8579 12.716L15.1882 13.7067L15.1882 13.7067L14.8579 12.716ZM11.3116 13.8981H10.2673V15.3469L11.6418 14.8888L11.3116 13.8981ZM17.5683 19.9517L18.0578 20.8743L18.0681 20.8687L17.5683 19.9517ZM15.0039 20.9838L14.7191 21.9885L15.0046 22.0695L15.2899 21.9882L15.0039 20.9838ZM12.4545 19.9615L11.9564 20.8794L11.9662 20.8847L12.4545 19.9615ZM9.92698 15.3329L9.59671 14.3422L8.8827 14.5802V15.3329H9.92698ZM14.5424 13.7942H15.5867V12.3453L14.2121 12.8035L14.5424 13.7942ZM15.4654 13.7942L15.7957 12.8035L14.4212 12.3453V13.7942H15.4654ZM20.0808 15.3329H21.1251V14.5802L20.4111 14.3422L20.0808 15.3329ZM20.7034 13.4666L19.95 13.215L19.2886 15.1961L20.0421 15.4477L20.7034 13.4666ZM20.6636 14.2056V11.3077H18.575V14.2056H20.6636ZM20.6636 11.3077C20.6636 10.7859 20.4563 10.2855 20.0874 9.91656L18.6105 11.3934C18.5878 11.3707 18.575 11.3398 18.575 11.3077H20.6636ZM20.0874 9.91656C19.7184 9.5476 19.218 9.34033 18.6962 9.34033L18.6962 11.4289C18.6641 11.4289 18.6332 11.4161 18.6105 11.3934L20.0874 9.91656ZM18.6962 9.34033H15.4654V11.4289H18.6962V9.34033ZM16.5097 10.3846V9.46154H14.4212V10.3846H16.5097ZM16.5097 9.46154C16.5097 9.06217 16.3511 8.67916 16.0687 8.39676L14.5918 9.8736C14.4826 9.76431 14.4212 9.61609 14.4212 9.46154H16.5097ZM16.0687 8.39676C15.7863 8.11436 15.4033 7.95571 15.0039 7.95571L15.0039 10.0443C14.8494 10.0443 14.7011 9.98289 14.5918 9.8736L16.0687 8.39676ZM15.0039 7.95571C14.6045 7.95571 14.2215 8.11436 13.9391 8.39676L15.416 9.8736C15.3067 9.98289 15.1585 10.0443 15.0039 10.0443L15.0039 7.95571ZM13.9391 8.39676C13.6567 8.67916 13.4981 9.06217 13.4981 9.46154H15.5867C15.5867 9.61609 15.5253 9.76432 15.416 9.8736L13.9391 8.39676ZM13.4981 9.46154V10.3846H15.5867V9.46154H13.4981ZM14.5424 9.34033H11.3116V11.4289H14.5424V9.34033ZM11.3116 9.34033C10.7898 9.34033 10.2894 9.5476 9.92046 9.91656L11.3973 11.3934C11.3746 11.4161 11.3437 11.4289 11.3116 11.4289L11.3116 9.34033ZM9.92046 9.91656C9.55151 10.2855 9.34423 10.7859 9.34423 11.3077L11.4328 11.3077C11.4328 11.3398 11.42 11.3707 11.3973 11.3934L9.92046 9.91656ZM9.34423 11.3077V14.2056H11.4328V11.3077H9.34423ZM10.0578 13.215L9.30437 13.4666L9.96575 15.4477L10.7192 15.1961L10.0578 13.215ZM9.3048 13.4664C8.91306 13.597 8.57235 13.8476 8.33092 14.1826L10.0253 15.4037C10.0104 15.4243 9.98945 15.4398 9.96532 15.4478L9.3048 13.4664ZM8.33092 14.1826C8.08949 14.5176 7.95959 14.92 7.95962 15.333L10.0482 15.3328C10.0482 15.3582 10.0402 15.383 10.0253 15.4037L8.33092 14.1826ZM7.95962 15.3329V16.8462H10.0482V15.3329H7.95962ZM7.95962 16.8462C7.95962 19.2299 9.8448 20.749 11.3441 21.5959C12.9079 22.4791 14.4867 22.8844 14.6393 22.9225L15.1447 20.896C15.0567 20.874 13.6915 20.523 12.3713 19.7773C10.9868 18.9953 10.0482 18.0128 10.0482 16.8462H7.95962ZM14.6387 22.9223C14.8785 22.9823 15.1293 22.9823 15.3691 22.9223L14.8626 20.8961C14.9554 20.8729 15.0524 20.8729 15.1452 20.8961L14.6387 22.9223ZM15.3685 22.9225C15.5211 22.8844 17.0999 22.4791 18.6637 21.5959C20.163 20.749 22.0482 19.2299 22.0482 16.8462H19.9596C19.9596 18.0128 19.0211 18.9953 17.6365 19.7773C16.3164 20.523 14.9511 20.874 14.8631 20.896L15.3685 22.9225ZM22.0482 16.8462V15.3329H19.9596V16.8462H22.0482ZM22.0482 15.333C22.0482 14.92 21.9183 14.5176 21.6769 14.1826L19.9825 15.4037C19.9676 15.383 19.9596 15.3582 19.9596 15.3328L22.0482 15.333ZM21.6769 14.1826C21.4355 13.8476 21.0947 13.597 20.703 13.4664L20.0425 15.4478C20.0184 15.4398 19.9974 15.4243 19.9825 15.4037L21.6769 14.1826ZM11.3116 12.352H18.6962V10.2634H11.3116V12.352ZM17.6519 11.3077V13.8981H19.7405V11.3077H17.6519ZM19.0264 12.9074L15.4801 11.7253L14.8196 13.7067L18.366 14.8888L19.0264 12.9074ZM15.4801 11.7253C15.171 11.6222 14.8368 11.6222 14.5277 11.7253L15.1882 13.7067C15.0686 13.7465 14.9392 13.7465 14.8196 13.7067L15.4801 11.7253ZM14.5277 11.7253L10.9814 12.9074L11.6418 14.8888L15.1882 13.7067L14.5277 11.7253ZM12.3559 13.8981V11.3077H10.2673V13.8981H12.3559ZM19.0365 16.8462C19.0365 17.2111 18.867 17.5888 18.4916 17.9904C18.1133 18.3951 17.5922 18.7494 17.0686 19.0348L18.0681 20.8687C18.6908 20.5293 19.426 20.0493 20.0173 19.4167C20.6115 18.781 21.1251 17.9183 21.1251 16.8462H19.0365ZM17.0788 19.0293C16.3274 19.428 15.5361 19.7465 14.7179 19.9795L15.2899 21.9882C16.2491 21.7151 17.1768 21.3417 18.0578 20.8742L17.0788 19.0293ZM15.2887 19.9791C14.4759 19.7487 13.6896 19.4334 12.9427 19.0384L11.9662 20.8847C12.8426 21.3482 13.7653 21.7182 14.7191 21.9885L15.2887 19.9791ZM12.9526 19.0437C11.0996 18.0382 10.9713 17.1566 10.9713 16.8462H8.8827C8.8827 18.1268 9.63125 19.6176 11.9564 20.8794L12.9526 19.0437ZM10.9713 16.8462V15.3329H8.8827V16.8462H10.9713ZM10.2573 16.3236L14.8726 14.7849L14.2121 12.8035L9.59671 14.3422L10.2573 16.3236ZM13.4981 13.7942V17.7692H15.5867V13.7942H13.4981ZM13.4981 17.7692C13.4981 18.1686 13.6567 18.5516 13.9391 18.834L15.416 17.3572C15.5253 17.4665 15.5867 17.6147 15.5867 17.7692H13.4981ZM13.9391 18.834C14.2215 19.1164 14.6045 19.2751 15.0039 19.2751V17.1865C15.1585 17.1865 15.3067 17.2479 15.416 17.3572L13.9391 18.834ZM15.0039 19.2751C15.4033 19.2751 15.7863 19.1164 16.0687 18.834L14.5918 17.3572C14.7011 17.2479 14.8494 17.1865 15.0039 17.1865V19.2751ZM16.0687 18.834C16.3511 18.5516 16.5097 18.1686 16.5097 17.7692H14.4212C14.4212 17.6147 14.4825 17.4665 14.5918 17.3572L16.0687 18.834ZM16.5097 17.7692V13.7942H14.4212V17.7692H16.5097ZM15.1352 14.7849L19.7506 16.3236L20.4111 14.3422L15.7957 12.8035L15.1352 14.7849ZM19.0365 15.3329V16.8462H21.1251V15.3329H19.0365Z" fill="white" mask="url(#path-2-inside-1_2283_4768)"/>
</svg>
