<svg width="59" height="59" viewBox="0 0 59 59" fill="none" xmlns="http://www.w3.org/2000/svg">
<path d="M37.4004 5.16607L29.4247 0.802071C29.2116 0.684323 28.9721 0.622559 28.7286 0.622559C28.4851 0.622559 28.2456 0.684323 28.0325 0.802071L20.0568 5.16788C19.829 5.2925 19.6389 5.476 19.5063 5.69919C19.3736 5.92239 19.3033 6.17711 19.3027 6.43674V15.1049C19.3033 15.3646 19.3736 15.6193 19.5063 15.8425C19.6389 16.0657 19.829 16.2492 20.0568 16.3738L28.0325 20.7396C28.2456 20.8573 28.4851 20.9191 28.7286 20.9191C28.9721 20.9191 29.2116 20.8573 29.4247 20.7396L37.4004 16.3738C37.6282 16.2492 37.8183 16.0657 37.9509 15.8425C38.0836 15.6193 38.1539 15.3646 38.1545 15.1049V6.43765C38.1544 6.17755 38.0843 5.92227 37.9516 5.69855C37.819 5.47483 37.6286 5.29091 37.4004 5.16607ZM28.7286 2.07094L36.0101 6.0588L28.7286 10.0467L21.4471 6.0588L28.7286 2.07094ZM20.7529 7.32767L28.0035 11.2956V19.071L20.7529 15.1058V7.32767ZM29.4537 19.071V11.2992L36.7043 7.32767V15.1022L29.4537 19.071Z" fill="#A566FF"/>
<path d="M28.7305 27.1861V22.4731" stroke="#A566FF" stroke-width="1.93333"/>
<path d="M18.7852 42.8694L10.8094 38.5054C10.5963 38.3877 10.3568 38.3259 10.1134 38.3259C9.86989 38.3259 9.6304 38.3877 9.4173 38.5054L1.44157 42.8712C1.2138 42.9959 1.02366 43.1794 0.891019 43.4026C0.758375 43.6258 0.688089 43.8805 0.6875 44.1401V52.8083C0.688089 53.0679 0.758375 53.3226 0.891019 53.5458C1.02366 53.769 1.2138 53.9525 1.44157 54.0772L9.4173 58.443C9.6304 58.5607 9.86989 58.6225 10.1134 58.6225C10.3568 58.6225 10.5963 58.5607 10.8094 58.443L18.7852 54.0772C19.0129 53.9525 19.2031 53.769 19.3357 53.5458C19.4684 53.3226 19.5386 53.0679 19.5392 52.8083V44.141C19.5391 43.8809 19.4691 43.6256 19.3364 43.4019C19.2037 43.1782 19.0133 42.9943 18.7852 42.8694ZM10.1134 39.7743L17.3948 43.7622L10.1134 47.75L2.83188 43.7622L10.1134 39.7743ZM2.13763 45.031L9.3883 48.999V56.7744L2.13763 52.8092V45.031ZM10.8384 56.7744V49.0026L18.0891 45.031V52.8056L10.8384 56.7744Z" fill="#A566FF"/>
<path d="M56.875 42.8694L48.8993 38.5054C48.6862 38.3877 48.4467 38.3259 48.2032 38.3259C47.9597 38.3259 47.7202 38.3877 47.5071 38.5054L39.5314 42.8712C39.3036 42.9959 39.1135 43.1794 38.9809 43.4026C38.8482 43.6258 38.7779 43.8805 38.7773 44.1401V52.8083C38.7779 53.0679 38.8482 53.3226 38.9809 53.5458C39.1135 53.769 39.3036 53.9525 39.5314 54.0772L47.5071 58.443C47.7202 58.5607 47.9597 58.6225 48.2032 58.6225C48.4467 58.6225 48.6862 58.5607 48.8993 58.443L56.875 54.0772C57.1028 53.9525 57.2929 53.769 57.4256 53.5458C57.5582 53.3226 57.6285 53.0679 57.6291 52.8083V44.141C57.629 43.8809 57.5589 43.6256 57.4262 43.4019C57.2936 43.1782 57.1032 42.9943 56.875 42.8694ZM48.2032 39.7743L55.4847 43.7622L48.2032 47.75L40.9217 43.7622L48.2032 39.7743ZM40.2275 45.031L47.4781 48.999V56.7744L40.2275 52.8092V45.031ZM48.9283 56.7744V49.0026L56.1789 45.031V52.8056L48.9283 56.7744Z" fill="#A566FF"/>
<path d="M10.1758 35.9695V34.0415C10.1758 30.2554 13.2449 27.1863 17.031 27.1863L41.2823 27.1863C45.0683 27.1863 48.1375 30.2554 48.1375 34.0415V35.9695" stroke="#A566FF" stroke-width="1.93333"/>
<path d="M21.4746 49.0332L36.8401 49.0332" stroke="#A566FF" stroke-width="1.93333"/>
</svg>
