<svg width="40" height="53" viewBox="0 0 40 53" fill="none" xmlns="http://www.w3.org/2000/svg">
<path d="M38.4185 23.1423L38.4194 23.1427C38.6525 23.2267 38.8597 23.365 39.023 23.5444C39.1862 23.7237 39.3007 23.9386 39.357 24.1696C39.4117 24.3994 39.4075 24.6387 39.3447 24.8666C39.2819 25.0949 39.162 25.3055 38.9948 25.4798C38.9947 25.4798 38.9947 25.4798 38.9947 25.4799L13.741 51.738C13.741 51.738 13.741 51.738 13.741 51.738C13.5186 51.9684 13.2237 52.1235 12.9003 52.1782C12.5768 52.2329 12.2441 52.1839 11.9527 52.0393C11.6614 51.8948 11.4282 51.6631 11.2867 51.3809C11.1454 51.0991 11.1026 50.7812 11.1639 50.4745C11.164 50.4742 11.164 50.474 11.1641 50.4737L14.4604 34.4463L14.5126 34.1925L14.2691 34.1039L1.27448 29.3752L1.27425 29.3751C1.04063 29.2903 0.833224 29.151 0.67011 28.9704C0.507041 28.7899 0.393256 28.5738 0.338057 28.3417C0.282866 28.1096 0.287764 27.8679 0.352364 27.638C0.416976 27.4081 0.539517 27.1964 0.709929 27.0221L0.711663 27.0203L25.9655 0.761989C25.9656 0.761869 25.9657 0.761749 25.9658 0.76163C26.1882 0.531487 26.4829 0.376509 26.8062 0.321813C27.1297 0.267081 27.4624 0.316061 27.7538 0.460672C28.0452 0.605225 28.2783 0.836892 28.4198 1.11911C28.5611 1.40089 28.6039 1.71879 28.5426 2.02541C28.5425 2.02571 28.5425 2.02601 28.5424 2.02632L25.2371 18.0711L25.1848 18.3249L25.4283 18.4136L38.4185 23.1423ZM15.3587 45.0083L15.1491 46.0256L15.8688 45.2766L34.9425 25.4272L35.2617 25.095L34.8288 24.9374L22.9244 20.6052C22.9243 20.6051 22.9242 20.6051 22.9241 20.6051C22.5898 20.4817 22.3136 20.248 22.1429 19.9478C21.9723 19.6478 21.9174 19.2997 21.9869 18.9652L21.9871 18.9646L24.3456 7.50262L24.5547 6.48646L23.8355 7.2342L4.75507 27.0727L4.43573 27.4047L4.86854 27.5625L16.7821 31.9058C16.7824 31.9059 16.7826 31.906 16.7829 31.9061C17.117 32.0295 17.393 32.2631 17.5636 32.5631C17.7342 32.8632 17.7891 33.2112 17.7196 33.5458L17.7195 33.5463L15.3587 45.0083Z" fill="#A566FF" stroke="white" stroke-width="0.6"/>
</svg>
