<svg width="50" height="48" viewBox="0 0 50 48" fill="none" xmlns="http://www.w3.org/2000/svg">
<g clip-path="url(#clip0_343_15861)">
<path d="M22.7795 0.0573428C38.4347 -0.967964 51.0778 11.8942 49.4079 27.5817C48.4984 36.1271 42.6985 44.0127 34.8408 47.4334C34.1414 47.7377 33.0003 48.3384 32.3422 47.7171C30.3095 42.841 28.5067 37.8321 26.6554 32.8708C26.6303 31.8104 27.7615 31.6677 28.5049 31.2385C35.0823 27.4426 32.4068 17.2891 24.805 17.2496C17.2068 17.2101 14.4208 27.3636 20.9776 31.2062C21.6456 31.5977 22.8917 31.849 22.889 32.7927C22.889 33.0369 22.6808 33.4956 22.5955 33.756C21.2407 37.8941 19.3499 42.7189 17.6655 46.7528C17.3163 47.5896 17.1708 48.1561 16.0504 47.964C14.9784 47.7799 12.3226 46.2411 11.3314 45.6027C-0.58169 37.9309 -3.6226 21.7441 4.70825 10.2206C8.83013 4.5186 15.6957 0.520616 22.7795 0.0573428ZM29.1612 33.2856L33.7832 45.2921C45.3955 40.2356 50.6594 26.516 45.1037 14.9665C38.9061 2.08461 22.1977 -1.8577 10.8861 6.9867C-1.2757 16.4955 -0.49101 35.0758 12.4429 43.5045C13.216 44.0082 14.7288 44.9536 15.5638 45.2265C15.6446 45.2535 15.7182 45.3405 15.8098 45.2579L20.3779 33.2865C14.8751 30.6325 13.3785 23.5281 17.1529 18.7221C21.1141 13.679 29.0885 13.89 32.73 19.1844C36.0735 24.0452 34.4628 30.7187 29.1612 33.2865V33.2856Z" fill="#A566FF"/>
</g>
<defs>
<clipPath id="clip0_343_15861">
<rect width="49.5559" height="48" fill="white"/>
</clipPath>
</defs>
</svg>
