<svg width="38" height="38" viewBox="0 0 38 38" fill="none" xmlns="http://www.w3.org/2000/svg">
<path d="M37.9344 18.7397C38.2499 27.477 31.1662 37.3886 19.273 37.4431C8.62817 37.4907 0.432331 29.175 0.500421 18.5855C0.566242 8.16829 8.70534 0.013617 19.214 1.45846e-05C30.7145 -0.0135879 38.2363 9.49 37.9321 18.7397H37.9344ZM35.7373 15.9058C35.7282 15.8219 35.7282 15.7086 35.7056 15.5975C35.0859 12.6662 33.8104 10.0568 31.8698 7.76929C31.4658 7.29093 31.0413 7.26373 30.4648 7.42469C26.8038 8.44034 23.994 10.5714 22.0193 13.7974C21.756 14.2282 21.1773 14.6385 21.688 15.2914C22.1759 15.9126 22.7207 15.8219 23.3925 15.6224C25.5351 14.9854 27.7049 14.6589 29.9678 14.9899C31.6632 15.237 33.2793 15.6678 34.8431 16.3456C35.263 16.527 35.7578 16.7718 35.7351 15.9104L35.7373 15.9058ZM2.66343 20.6871C3.08787 24.2396 4.47691 27.1687 6.70575 29.7282C7.04166 30.1136 7.398 30.1839 7.90868 30.0433C11.6514 29.0027 14.493 26.7969 16.4949 23.496C16.7468 23.0811 17.1985 22.639 16.706 22.0745C16.2521 21.5554 15.7505 21.6619 15.1671 21.832C12.9837 22.4667 10.7821 22.7841 8.47837 22.4599C6.48332 22.1788 4.61537 21.5622 2.66116 20.6848L2.66343 20.6871ZM21.1864 35.3029C24.7657 34.8382 27.689 33.4983 30.2538 31.3219C30.7372 30.9116 30.6192 30.4401 30.4853 29.9821C29.4026 26.2777 27.2305 23.4008 23.885 21.4375C23.4765 21.1972 23.077 20.8639 22.5595 21.3105C22.0556 21.7435 22.1578 22.2015 22.3212 22.7343C22.9136 24.6567 23.0997 26.6178 23.0066 28.6355C22.9 30.9343 22.2191 33.0563 21.1841 35.3052L21.1864 35.3029ZM17.287 10.424C17.253 11.1246 17.4936 12.3442 17.8045 13.5481C17.9112 13.9607 17.9543 14.473 18.5467 14.5637C19.1391 14.6521 19.4387 14.3166 19.6884 13.8473C21.6857 10.0953 24.693 7.4859 28.6627 5.98056C29.3028 5.73799 29.4866 5.50901 28.8125 5.04199C26.3726 3.35302 23.6717 2.39631 20.7324 2.05625C19.9471 1.96557 19.4727 2.25576 19.1073 2.94948C17.9634 5.12134 17.3188 7.41109 17.2825 10.424H17.287ZM10.4144 20.508C11.7558 20.542 13.0631 20.4128 14.3342 20.0047C14.7427 19.8732 15.1149 19.7372 15.1195 19.1931C15.124 18.7147 14.9197 18.4291 14.4999 18.2228C10.6346 16.3139 7.96316 13.3282 6.47424 9.28823C6.19507 8.53102 5.89774 8.64891 5.50962 9.20435C3.83232 11.6052 2.89948 14.2735 2.57946 17.1731C2.49321 17.9575 2.79962 18.4404 3.48733 18.7986C5.66396 19.9367 7.94727 20.6191 10.4121 20.508H10.4144ZM32.36 29.0685C34.5571 26.2346 35.6443 23.2421 35.962 19.9435C36.0256 19.2906 35.6148 19.0095 35.1336 18.7374C31.7858 16.8331 28.2337 16.4862 24.5251 17.3522C24.0711 17.4588 23.5219 17.4792 23.4356 18.1457C23.3471 18.8258 23.8078 19.0684 24.289 19.3155C26.0208 20.2042 27.5097 21.3944 28.8239 22.8295C30.4285 24.5842 31.4522 26.6631 32.36 29.0685ZM16.992 2.61169C16.8876 2.06532 16.4268 2.26029 16.125 2.31697C13.1766 2.87467 10.5642 4.13743 8.29907 6.11432C7.88145 6.47705 7.78158 6.85339 7.94273 7.40882C9.00494 11.0271 11.0749 13.8813 14.3137 15.8446C14.7541 16.1121 15.2239 16.6562 15.8322 16.1801C16.4177 15.7199 16.2316 15.1327 16.0523 14.5297C14.9266 10.7482 15.1308 7.03475 16.6788 3.40063C16.7809 3.15805 16.8717 2.91094 16.9897 2.61169H16.992ZM21.0456 27.5223C21.0978 26.2868 20.9685 25.0557 20.5962 23.8565C20.4646 23.4348 20.4328 22.9474 19.8268 22.8794C19.2004 22.8113 18.978 23.2285 18.7464 23.6819C16.8467 27.4158 13.8825 29.9594 9.9968 31.4693C9.73124 31.5713 9.32951 31.5759 9.30908 31.9454C9.29319 32.2242 9.61095 32.3557 9.82657 32.5008C12.2165 34.1173 14.8517 35.0581 17.7137 35.3891C18.4355 35.473 18.903 35.2372 19.2639 34.5684C20.4555 32.3671 21.15 30.0569 21.0456 27.5201V27.5223ZM17.0896 18.6422C17.0351 19.7667 18.0247 20.8571 19.1414 20.9047C20.3125 20.9546 21.4065 19.9322 21.4496 18.751C21.4882 17.6583 20.4646 16.6018 19.3139 16.5497C18.1972 16.4975 17.1463 17.4882 17.0918 18.6422H17.0896Z" fill="#A566FF"/>
</svg>
