<svg width="31" height="42" viewBox="0 0 31 42" fill="none" xmlns="http://www.w3.org/2000/svg">
<path d="M30.9636 19.2792C30.9103 19.0547 30.802 18.8468 30.6484 18.674C30.4948 18.5011 30.3006 18.3687 30.0831 18.2883L19.9385 14.5053L22.52 1.66829C22.5784 1.37003 22.5377 1.06096 22.404 0.787718C22.2702 0.514477 22.0507 0.291891 21.7786 0.153551C21.5064 0.0152106 21.1964 -0.0313786 20.8953 0.0208138C20.5941 0.0730062 20.3183 0.221148 20.1093 0.442885L0.386911 21.4499C0.226729 21.6177 0.11085 21.8223 0.0496298 22.0455C-0.0115909 22.2687 -0.0162476 22.5035 0.0360761 22.7289C0.0883998 22.9543 0.196074 23.1633 0.349479 23.3372C0.502884 23.5112 0.697242 23.6446 0.915189 23.7257L11.0634 27.5087L8.48893 40.3317C8.43047 40.63 8.47118 40.939 8.60492 41.2123C8.73866 41.4855 8.95817 41.7081 9.23032 41.8464C9.50247 41.9848 9.8125 42.0314 10.1136 41.9792C10.4148 41.927 10.6906 41.7789 10.8996 41.5571L30.622 20.5501C30.7793 20.3823 30.8927 20.1786 30.9522 19.957C31.0118 19.7354 31.0157 19.5026 30.9636 19.2792ZM12.2238 36.055L14.0675 26.8855C14.1335 26.5603 14.0812 26.2223 13.92 25.9319C13.7587 25.6414 13.499 25.4173 13.1871 25.2994L3.88235 21.8245L18.7833 5.95372L16.9414 15.1233C16.8754 15.4485 16.9277 15.7864 17.0889 16.0769C17.2502 16.3673 17.5099 16.5915 17.8218 16.7093L27.1195 20.1755L12.2238 36.055Z" fill="#A566FF"/>
</svg>
