<?xml version="1.0" encoding="UTF-8"?>
<svg version="1.1" xmlns="http://www.w3.org/2000/svg" width="401" height="401">
<path d="M0 0 C0.88800293 0.21430664 1.77600586 0.42861328 2.69091797 0.64941406 C38.02490193 9.39223668 68.77637399 26.88623217 95 52 C95.49886719 52.47163574 95.99773437 52.94327148 96.51171875 53.42919922 C124.09288213 79.60117077 142.45138905 114.08726451 151 151 C151.29414795 152.2072876 151.29414795 152.2072876 151.59423828 153.43896484 C158.06398572 180.97374442 157.80679401 213.57079585 151 241 C150.67854004 242.33200439 150.67854004 242.33200439 150.35058594 243.69091797 C141.60776332 279.02490193 124.11376783 309.77637399 99 336 C98.29254639 336.74830078 98.29254639 336.74830078 97.57080078 337.51171875 C71.45950922 365.02893492 36.8174837 383.47344839 0 392 C-1.2072876 392.29414795 -1.2072876 392.29414795 -2.43896484 392.59423828 C-29.97374442 399.06398572 -62.57079585 398.80679401 -90 392 C-91.33200439 391.67854004 -91.33200439 391.67854004 -92.69091797 391.35058594 C-128.02490193 382.60776332 -158.77637399 365.11376783 -185 340 C-185.49886719 339.52836426 -185.99773437 339.05672852 -186.51171875 338.57080078 C-214.09288213 312.39882923 -232.45138905 277.91273549 -241 241 C-241.19609863 240.1951416 -241.39219727 239.3902832 -241.59423828 238.56103516 C-248.06398572 211.02625558 -247.80679401 178.42920415 -241 151 C-240.78569336 150.11199707 -240.57138672 149.22399414 -240.35058594 148.30908203 C-231.60776332 112.97509807 -214.11376783 82.22362601 -189 56 C-188.52836426 55.50113281 -188.05672852 55.00226562 -187.57080078 54.48828125 C-161.39882923 26.90711787 -126.91273549 8.54861095 -90 0 C-89.1951416 -0.19609863 -88.3902832 -0.39219727 -87.56103516 -0.59423828 C-60.02625558 -7.06398572 -27.42920415 -6.80679401 0 0 Z " fill="#A566FF" transform="translate(246,5)"/>
<path d="M0 0 C20.15896192 16.41922517 29.44640916 47.32938734 33 72 C33.18433594 73.03640625 33.36867188 74.0728125 33.55859375 75.140625 C37.78563981 112.09922237 30.50560834 152.38602634 7 182 C-4.7902014 196.46086066 -19.43834618 207.2346447 -38 211 C-41.84633172 211.38338692 -45.63726825 211.42191577 -49.5 211.375 C-50.93279297 211.39240234 -50.93279297 211.39240234 -52.39453125 211.41015625 C-72.33561838 211.32920461 -87.52233262 201.18185121 -101.2734375 187.78515625 C-120.47909078 167.40287204 -132.19137419 135.79651218 -133 108 C-133.03867188 106.8241333 -133.03867188 106.8241333 -133.078125 105.62451172 C-133.62705075 86.71745048 -132.66735843 68.39550266 -119.00390625 53.75390625 C-109.71409871 45.62306106 -101.07092793 44.18127191 -89.13867188 44.76464844 C-84.64755018 45.2588769 -81.45710176 47.2359303 -78 50 C-77.13375 50.556875 -76.2675 51.11375 -75.375 51.6875 C-64.95594845 61.83236598 -59.18641248 75.57631632 -58.56640625 90.015625 C-58.54272875 92.09361552 -58.5421774 94.17197396 -58.5625 96.25 C-58.57079834 97.36971191 -58.57909668 98.48942383 -58.58764648 99.64306641 C-59.01161679 121.11316408 -63.03967771 148.03622889 -76 166 C-78.17578125 166.80078125 -78.17578125 166.80078125 -80 167 C-81.46236093 165.0862931 -82.91994246 163.16924767 -84.375 161.25 C-84.7875 160.71117187 -85.2 160.17234375 -85.625 159.6171875 C-91.09856615 152.37795484 -91.09856615 152.37795484 -90.8046875 148.26953125 C-90.01714353 145.06965598 -89.04051396 142.03756655 -87.93017578 138.93896484 C-83.00647056 125.17110264 -80.76742859 112.25600079 -80.5625 97.625 C-80.54010254 96.63870605 -80.51770508 95.65241211 -80.49462891 94.63623047 C-80.52707898 84.45886327 -83.51418803 75.85124607 -90 68 C-93.23367217 66.38316391 -96.50358583 66.43301392 -100 67 C-105.90375103 71.11889607 -109.53428681 79.02845649 -111 86 C-113.14543775 117.42795868 -105.4861631 148.86623126 -84.75 173.125 C-75.53832559 183.0110732 -63.8570266 189.93805857 -50.0625 190.625 C-37.74907216 190.00111966 -27.26463111 184.94111238 -18 177 C-17.05253906 176.21882813 -17.05253906 176.21882813 -16.0859375 175.421875 C-4.03648363 164.52784821 2.79642269 147.75089846 7.25 132.5625 C7.49645264 131.72904053 7.74290527 130.89558105 7.99682617 130.03686523 C16.57982985 99.25613134 13.9448452 63.63709349 -0.875 35.125 C-5.75965742 26.74221552 -11.27026776 19.21897313 -18.53125 12.75390625 C-20 11 -20 11 -20 7 C-17.60945893 5.8212678 -15.21354785 4.65697003 -12.8125 3.5 C-12.13896484 3.16613281 -11.46542969 2.83226563 -10.77148438 2.48828125 C-3.84692991 -0.82199357 -3.84692991 -0.82199357 0 0 Z " fill="#FDFDFF" transform="translate(297,100)"/>
<path d="M0 0 C0.06731323 0.87398437 0.06731323 0.87398437 0.13598633 1.765625 C2.66663311 33.83519114 8.87963401 64.83974301 34.28515625 86.95703125 C43.93924626 94.22190762 54.90487528 98.2886975 67 97 C72.62425254 95.68313349 78.00585576 94.10222712 83.07421875 91.30078125 C86 90 86 90 88.57421875 89.984375 C91.94727605 91.39660511 93.52811627 93.41630344 95.8125 96.25 C96.60269531 97.20390625 97.39289063 98.1578125 98.20703125 99.140625 C100.0951713 102.15177645 100.42411444 103.53112371 100 107 C82.4661966 117.174354 65.30336999 120.83607331 45.0703125 117.31640625 C42.22380835 116.40658198 39.6649806 115.34717917 37 114 C35.63294922 113.36384766 35.63294922 113.36384766 34.23828125 112.71484375 C27.03266045 109.10700851 21.0131875 104.3240781 15 99 C14.37480469 98.45859375 13.74960938 97.9171875 13.10546875 97.359375 C-5.29810461 80.29189244 -15.13989825 53.88726521 -19.3125 29.75 C-19.48442871 28.75572998 -19.65635742 27.76145996 -19.83349609 26.73706055 C-20.88660368 20.11084597 -21.19955188 13.70428613 -21 7 C-19.10545176 6.03912864 -17.20930419 5.08141031 -15.3125 4.125 C-14.25675781 3.59132812 -13.20101562 3.05765625 -12.11328125 2.5078125 C-4.31054118 -1.27118081 -4.31054118 -1.27118081 0 0 Z " fill="#FDFCFF" transform="translate(92,193)"/>
</svg>
