<svg width="125" height="40" viewBox="0 0 125 40" fill="none" xmlns="http://www.w3.org/2000/svg">
<path d="M53.0784 24.6328H49.6077C48.8151 24.6328 48.1991 24.4132 47.7599 23.974C47.3315 23.5348 47.1172 22.9243 47.1172 22.1423V18.9287C47.1172 18.136 47.3315 17.5255 47.7599 17.097C48.1991 16.6578 48.8151 16.4382 49.6077 16.4382H50.9253C51.718 16.4382 52.3339 16.6578 52.7731 17.097C53.2123 17.5255 53.4319 18.136 53.4319 18.9287V20.9693C53.4319 21.1622 53.3355 21.2586 53.1427 21.2586H48.8365C48.7187 21.2586 48.6597 21.3121 48.6597 21.4192V22.1102C48.6597 22.8921 49.0507 23.2831 49.8327 23.2831H53.0784C53.2712 23.2831 53.3676 23.3795 53.3676 23.5723V24.3757C53.3676 24.5471 53.2712 24.6328 53.0784 24.6328ZM48.8365 20.1659H51.7126C51.8198 20.1659 51.8733 20.1124 51.8733 20.0053V18.9769C51.8733 18.5699 51.7823 18.2753 51.6002 18.0932C51.4181 17.9004 51.1235 17.804 50.7164 17.804H49.8327C49.4256 17.804 49.1311 17.9004 48.949 18.0932C48.7669 18.2753 48.6758 18.5699 48.6758 18.9769V20.0053C48.6758 20.1124 48.7294 20.1659 48.8365 20.1659ZM56.4874 24.6328H55.4752C55.2931 24.6328 55.202 24.5418 55.202 24.3597V16.7113C55.202 16.5292 55.2931 16.4382 55.4752 16.4382H56.4874C56.6695 16.4382 56.7606 16.5292 56.7606 16.7113V17.2898H56.8249C57.0819 16.7221 57.6229 16.4382 58.4477 16.4382H59.1547C59.9367 16.4382 60.5365 16.6524 60.9543 17.0809C61.3721 17.5094 61.581 18.1253 61.581 18.9287V24.3597C61.581 24.5418 61.4845 24.6328 61.2917 24.6328H60.2795C60.0974 24.6328 60.0063 24.5418 60.0063 24.3597V18.993C60.0063 18.2003 59.6153 17.804 58.8333 17.804H58.0782C57.1998 17.804 56.7606 18.2592 56.7606 19.1697V24.3597C56.7606 24.5418 56.6695 24.6328 56.4874 24.6328ZM69.3032 24.6328H65.8325C65.0399 24.6328 64.4239 24.4132 63.9847 23.974C63.5563 23.5348 63.342 22.9243 63.342 22.1423V18.9287C63.342 18.136 63.5563 17.5255 63.9847 17.097C64.4239 16.6578 65.0399 16.4382 65.8325 16.4382H67.1501C67.9428 16.4382 68.5587 16.6578 68.9979 17.097C69.4371 17.5255 69.6567 18.136 69.6567 18.9287V20.9693C69.6567 21.1622 69.5603 21.2586 69.3675 21.2586H65.0613C64.9434 21.2586 64.8845 21.3121 64.8845 21.4192V22.1102C64.8845 22.8921 65.2755 23.2831 66.0575 23.2831H69.3032C69.496 23.2831 69.5924 23.3795 69.5924 23.5723V24.3757C69.5924 24.5471 69.496 24.6328 69.3032 24.6328ZM65.0613 20.1659H67.9374C68.0446 20.1659 68.0981 20.1124 68.0981 20.0053V18.9769C68.0981 18.5699 68.0071 18.2753 67.825 18.0932C67.6429 17.9004 67.3483 17.804 66.9412 17.804H66.0575C65.6504 17.804 65.3559 17.9004 65.1738 18.0932C64.9917 18.2753 64.9006 18.5699 64.9006 18.9769V20.0053C64.9006 20.1124 64.9542 20.1659 65.0613 20.1659ZM72.7122 24.6328H71.7C71.5178 24.6328 71.4268 24.5418 71.4268 24.3597V16.7113C71.4268 16.5292 71.5178 16.4382 71.7 16.4382H72.7122C72.8943 16.4382 72.9854 16.5292 72.9854 16.7113V17.3219H73.0497C73.1568 17.0541 73.3603 16.8399 73.6602 16.6792C73.9709 16.5185 74.3137 16.4382 74.6886 16.4382H75.2831C75.4652 16.4382 75.5562 16.5292 75.5562 16.7113V17.5469C75.5562 17.7504 75.4652 17.8361 75.2831 17.804H74.319C73.4299 17.804 72.9854 18.2914 72.9854 19.2661V24.3597C72.9854 24.5418 72.8943 24.6328 72.7122 24.6328ZM79.7975 24.2311H79.0745C78.3032 24.2311 77.7087 24.0169 77.2909 23.5884C76.8839 23.1492 76.6804 22.5333 76.6804 21.7406V18.9287C76.6804 18.136 76.9 17.5255 77.3391 17.097C77.7783 16.6578 78.3889 16.4382 79.1709 16.4382H82.7701C82.9629 16.4382 83.0593 16.5292 83.0593 16.7113V24.6649C83.0593 25.4469 82.8344 26.0521 82.3845 26.4806C81.9453 26.9198 81.3347 27.1394 80.5527 27.1394H77.532C77.3499 27.1394 77.2588 27.0537 77.2588 26.8823V26.0468C77.2588 25.8647 77.3499 25.7736 77.532 25.7736H80.3117C81.0937 25.7736 81.4847 25.3773 81.4847 24.5846V23.3634H81.4204C81.1526 23.9419 80.6116 24.2311 79.7975 24.2311ZM81.4847 21.4996V17.9646C81.4847 17.8575 81.4257 17.804 81.3079 17.804H79.3958C78.6353 17.804 78.255 18.2003 78.255 18.993V21.6603C78.255 22.4529 78.6353 22.8493 79.3958 22.8493H80.1671C81.0455 22.8493 81.4847 22.3994 81.4847 21.4996ZM86.0266 27.2358H85.175C84.9929 27.2358 84.9018 27.1448 84.9018 26.9627V26.1432C84.9018 25.9504 84.9929 25.854 85.175 25.854H85.5446C86.198 25.854 86.6479 25.7254 86.8943 25.4683C87.1514 25.2113 87.3656 24.7881 87.537 24.199H86.8943C86.7336 24.199 86.6211 24.1079 86.5568 23.9258L84.4198 16.7113C84.377 16.5292 84.4466 16.4382 84.6287 16.4382H85.7052C85.8766 16.4382 85.9838 16.5292 86.0266 16.7113L87.778 23.01H87.8423L89.5937 16.7113C89.6258 16.5292 89.7329 16.4382 89.915 16.4382H90.9434C91.1469 16.4382 91.2326 16.5346 91.2005 16.7274L88.9992 24.4561C88.7528 25.3559 88.4046 26.0414 87.9547 26.5128C87.5048 26.9948 86.8621 27.2358 86.0266 27.2358ZM99.2678 24.6328H97.886C97.7253 24.6328 97.6182 24.5418 97.5646 24.3597L95.7168 16.7113C95.6739 16.5292 95.7382 16.4382 95.9096 16.4382H97.0665C97.2593 16.4382 97.3664 16.5292 97.3878 16.7113L98.5608 22.785H98.6733L100.087 16.7113C100.119 16.5292 100.221 16.4382 100.393 16.4382H101.453C101.635 16.4382 101.748 16.5292 101.79 16.7113L103.172 22.785H103.285L104.458 16.7113C104.49 16.5292 104.597 16.4382 104.779 16.4382H105.936C106.118 16.4382 106.182 16.5292 106.129 16.7113L104.281 24.3597C104.249 24.5418 104.142 24.6328 103.96 24.6328H102.578C102.406 24.6328 102.299 24.5418 102.256 24.3597L100.971 18.3985H100.859L99.5891 24.3597C99.557 24.5418 99.4499 24.6328 99.2678 24.6328ZM113.302 24.6328H109.831C109.038 24.6328 108.422 24.4132 107.983 23.974C107.555 23.5348 107.34 22.9243 107.34 22.1423V18.9287C107.34 18.136 107.555 17.5255 107.983 17.097C108.422 16.6578 109.038 16.4382 109.831 16.4382H111.148C111.941 16.4382 112.557 16.6578 112.996 17.097C113.435 17.5255 113.655 18.136 113.655 18.9287V20.9693C113.655 21.1622 113.559 21.2586 113.366 21.2586H109.06C108.942 21.2586 108.883 21.3121 108.883 21.4192V22.1102C108.883 22.8921 109.274 23.2831 110.056 23.2831H113.302C113.494 23.2831 113.591 23.3795 113.591 23.5723V24.3757C113.591 24.5471 113.494 24.6328 113.302 24.6328ZM109.06 20.1659H111.936C112.043 20.1659 112.096 20.1124 112.096 20.0053V18.9769C112.096 18.5699 112.005 18.2753 111.823 18.0932C111.641 17.9004 111.347 17.804 110.94 17.804H110.056C109.649 17.804 109.354 17.9004 109.172 18.0932C108.99 18.2753 108.899 18.5699 108.899 18.9769V20.0053C108.899 20.1124 108.953 20.1659 109.06 20.1659ZM117.161 23.267H119.153C119.924 23.267 120.31 22.8707 120.31 22.078V18.9287C120.31 18.136 119.924 17.7397 119.153 17.7397H118.301C117.423 17.7397 116.984 18.1896 116.984 19.0894V23.0903C116.984 23.2081 117.043 23.267 117.161 23.267ZM115.425 24.3597V13.6102C115.425 13.4281 115.516 13.3371 115.698 13.3371H116.711C116.893 13.3371 116.984 13.4281 116.984 13.6102V17.2416H117.048C117.316 16.6631 117.857 16.3739 118.671 16.3739H119.378C120.171 16.3739 120.786 16.5935 121.226 17.0327C121.665 17.4612 121.884 18.0664 121.884 18.8484V22.1423C121.884 22.9243 121.665 23.5348 121.226 23.974C120.786 24.4132 120.171 24.6328 119.378 24.6328H115.698C115.516 24.6328 115.425 24.5418 115.425 24.3597Z" fill="#080808"/>
<ellipse cx="19.9901" cy="20" rx="19.7557" ry="20" fill="white"/>
<path d="M19.9901 0C16.0828 0 12.2632 1.17298 9.01441 3.37061C5.7656 5.56823 3.23346 8.6918 1.7382 12.3463C0.242936 16.0008 -0.148295 20.0222 0.613984 23.9018C1.37626 27.7814 3.25781 31.3451 6.0207 34.1421C8.78358 36.9392 12.3037 38.844 16.136 39.6157C19.9682 40.3874 23.9404 39.9913 27.5503 38.4776C31.1602 36.9638 34.2456 34.4004 36.4164 31.1114C38.5872 27.8224 39.7458 23.9556 39.7458 20C39.7445 14.6961 37.6626 9.60981 33.958 5.85939C30.2534 2.10896 25.2292 0.00139082 19.9901 0ZM19.1013 29.8557C18.0272 30.6344 16.7427 31.0602 15.4217 31.0755C13.1388 31.0755 11.0477 29.8242 9.46184 27.5131C8.03551 25.3034 7.24421 22.7358 7.17635 20.0971C7.17687 20.0473 7.19259 19.9988 7.22135 19.9585C7.25011 19.9181 7.29051 19.8877 7.33701 19.8715L8.89176 19.1658C8.92083 19.1517 8.95248 19.1438 8.9847 19.1427C9.01692 19.1416 9.04902 19.1472 9.07897 19.1593C9.10892 19.1714 9.13606 19.1896 9.1587 19.2129C9.18134 19.2361 9.19898 19.2638 9.2105 19.2943C9.2105 19.3258 9.24159 19.3573 9.24159 19.3888C9.24159 22.0121 9.93863 24.4937 11.1773 26.3247C12.3485 28.0587 13.8722 28.99 15.458 28.99C16.3161 28.9918 17.1553 28.7343 17.8679 28.2503C17.9201 28.2234 17.9798 28.2152 18.0372 28.2271C18.0947 28.239 18.1464 28.2703 18.184 28.3158C18.5001 28.7329 18.8188 29.1186 19.1661 29.5016C19.1873 29.5611 19.1925 29.6253 19.1811 29.6875C19.1697 29.7497 19.1422 29.8078 19.1013 29.8557ZM30.5495 27.5131C28.9947 29.7928 26.8699 31.0755 24.5896 31.0755C22.3093 31.0755 20.213 29.7928 18.6297 27.5131C17.1397 25.3305 16.3157 22.4397 16.3157 19.3809C16.3157 16.5582 17.9327 14.3415 19.9616 14.3415C21.9906 14.3415 23.6101 16.5582 23.6101 19.3809C23.6459 21.8415 23.0674 24.2714 21.9284 26.4454C21.9148 26.4736 21.8956 26.4987 21.872 26.519C21.8484 26.5394 21.8209 26.5546 21.7912 26.5637C21.7615 26.5728 21.7303 26.5756 21.6995 26.572C21.6687 26.5683 21.639 26.5583 21.6122 26.5425C21.5811 26.5425 21.5811 26.5084 21.5475 26.4769C21.3583 26.2513 21.1666 26.0283 21.0085 25.8027C20.8184 25.5251 20.6454 25.236 20.4902 24.937C20.4748 24.9015 20.4669 24.8631 20.4669 24.8242C20.4669 24.7854 20.4748 24.747 20.4902 24.7114C21.2098 23.018 21.5776 21.1928 21.5708 19.3494C21.5708 17.9696 20.8711 16.3956 19.9512 16.3956C19.0313 16.3956 18.3343 17.9696 18.3343 19.3494C18.3343 21.9727 19.0313 24.4543 20.27 26.2854C21.4438 28.0168 22.9649 28.948 24.5507 28.948C26.1366 28.948 27.6602 27.9853 28.8315 26.2854C30.0675 24.4491 30.7671 21.9832 30.7671 19.3494C30.7671 16.7156 30.0727 14.2576 28.8315 12.4213C28.4773 11.8816 28.0499 11.395 27.5617 10.9759C27.5197 10.9286 27.4939 10.8687 27.4883 10.8053C27.4827 10.742 27.4975 10.6784 27.5307 10.6243C27.5617 10.5902 27.5954 10.5588 27.6265 10.5588L29.1813 9.85309C29.2245 9.82941 29.2749 9.82274 29.3228 9.83436C29.3706 9.84598 29.4125 9.87507 29.4404 9.91605C29.8358 10.3223 30.1972 10.761 30.521 11.2277C32.0109 13.4103 32.8349 16.3011 32.8349 19.3599C32.8349 22.4187 32.0394 25.3305 30.5495 27.5131Z" fill="#A466FF"/>
</svg>
